<?xml version="1.0" encoding="utf-8"?><!-- Uploaded to: SVG Repo, www.svgrepo.com, Generator: SVG Repo Mixer Tools -->
<svg fill="#000000" width="800px" height="800px" viewBox="0 0 24 24" id="youtube" data-name="Flat Color" xmlns="http://www.w3.org/2000/svg" class="icon flat-color"><path id="primary" d="M18.31,4.21C16.42,4.07,14.29,4,12,4s-4.42.07-6.31.21A4,4,0,0,0,2,8.2v7.6a4,4,0,0,0,3.69,4c1.89.14,4,.21,6.31.21s4.42-.07,6.31-.21a4,4,0,0,0,3.69-4V8.2A4,4,0,0,0,18.31,4.21Z" style="fill: rgb(0, 0, 0);"></path><path id="secondary" d="M10,9.88v4.24a.5.5,0,0,0,.76.43l3.53-2.12a.51.51,0,0,0,0-.86L10.76,9.45A.5.5,0,0,0,10,9.88Z" style="fill: rgb(44, 169, 188);"></path></svg>